<?xml version="1.0" encoding="UTF-8"?>
<svg id="_レイヤー_1" data-name="レイヤー 1" xmlns="http://www.w3.org/2000/svg" viewBox="0 0 136.03 143.91">
  <path d="M18.49,23.75c.81.27.83,1.73.78,2.54-.39,1.35-.38,2.75.03,4.21.61,2.55.54,5-.17,7.53,1.02-1.49,6.25-8.89,8.13-8.25.56.19.82.75.38,1.26-2.82,2.55-5.73,4.4-7.65,8.11l-1.5,2.54c2.77-2.7,5.12-6.55,9.38-6.02.28.04,3.48,1,2.88,1.58-2.36-.28-3.71,2.29-5.51,2.98-2.22.84-4.07.4-6.17,2.17-1.27,1.08-2.99,3.84-3.73,5.37-.91,1.88-1.49,4.11-2.24,6.08.08.74.58-.86.62-.92,1.71-3.21,5.83-8.2,9.59-7.69,2.47.33,3.51,4.28,1.59,4.76-1.37.34-1.09-.48-1.68-1.29-1.31-1.82-4.44-.44-5.8.79-4.48,4.06-6.04,12.18-6.46,18.2l.34,1.33c.14-1.99,1.29-3.69,1.92-5.45,1.16-3.25,1.03-5.82,4.14-7.93,1.91-1.3,3.95-1.16,6.03-.46.33.38-1.44.92-1.69,1.09-1.43.98-1.97,3.42-3.13,4.76-1.36,1.58-3.5,2.01-4.72,3.74-2.43,3.45-2.98,10.11-2.55,14.28.03.27.03.55.33.61-.04-.48.01-.92.11-1.39.66-3.27,2.6-6.03,3.96-8.87.75-1.56,1.05-2.81,2.82-3.46,2.04-.75,2.91-.36,1.96,1.95-1.46,3.54-4.38,3.03-6.15,6.1-2.25,3.91-2.64,8.48-1.81,12.94.47-.63.17-1.6.26-2.38.46-3.68,2.85-8.76,6.78-8.78,2.9-.02,5.37,3.78,3.57,6.54-1,1.52-3.26,1.17-3.01-.88.68-.13,1.05.77,1.64.1,1.21-1.36-.3-3.77-1.8-4.1-2.38-.53-4.59,2.09-5.43,4.24-2.82,7.18.32,16.09,3.54,22.49.31.63.73,1.43,1.09,2.01.11.18.33.56.3.03-.46-.69-.58-1.57-.74-2.39-.52-2.75-1.58-7.95-1.38-10.56.3-3.93,3.39-6.85,7.02-6.48.07.66-.53.77-.82,1.14-1.39,1.75-.86,4.84-1.76,7.14-1.09,2.8-2.91,2.51-2.64,6.53.34,5.21,5.11,12.06,8.57,15.54.1.1.54.38.57.35l-.84-1.3c-1.68-4.28-5.05-7.99-4.53-12.97.2-1.91,1.34-5.04,3.25-5.43-.06.77-.52,1.38-.48,2.19.07,1.57,1.42,3.61,1.61,5.37.36,3.31-1.09,5.29.1,8.76.45,1.3,2.6,4.29,3.51,5.41.34.42,2.63,3,2.86,3.11.09.04.28.03.24-.09-1.25-1.75-2.41-3.75-2.86-5.94-.37-1.8-.13-4.95.1-6.82.41-3.32,4.28-2.43,2.96.73-.5,1.18-1.96,1.71-2.12,2.31-.31,1.2-.02,3.37.29,4.58.88,3.49,4.15,7.32,7.03,9.05.34.2.93.63,1.31.53-2.28-2.3-4.27-5.81-3.52-9.33.57-2.66,2.6-4.73,5.22-4.41,2.35.28,3.95,2.87,2.69,5.19-.84,1.53-2.77,1.07-2.35.12.28-.64,1.37.33,1.23-1.31-.24-2.76-3.75-2.61-4.93-.41-1.91,3.56.65,8,3.14,10.33,1.99,1.87,4.82,2.99,7.19,4.17-1.01-.85-2.14-1.63-2.94-2.75-.56-.79-1.95-3.52-1.97-4.45-.04-1.87,2.47-2.24,2.61.03.11,1.8-1.3,1.94.34,4.23,2.02,2.81,5.69,3.91,8.79,4.47,2.08.38,4.32.67,6.4.41l-3.88-1.73c-3.89-1.11-8.14-2.79-8.69-7.78-.2-1.88.27-5.2,2.11-5.93-.14,1.4.37,2.86,1.3,3.82,1,1.03,2.54,1.37,3.43,2.66,1.13,1.62,1.03,3.79,1.93,5.36,2.09,3.64,9.24,3.39,12.62,2.46l2.77-.81h-3.84c-.34,0-2.18-.69-2.59-.91-2.48-1.33-4.64-4.65-3.58-7.75.5-1.46,2.52-2.77,3.65-1.37,1.29,1.6-.76,2.14-1.31,3.02-1.28,2.04.51,4.53,2.29,5.32,2.11.94,3.84.65,5.98.78.32.02.23.03.23-.33-2.07-.15-3.97-2.17-3.76-4.53.24-2.73,2.47-.47,1.96.09h-.82c-.13,2.18,2.42,3.73,4.17,3.9,4.98.5,10.58-4.31,14.62-7.01l-5.69,1.99c-3.68.91-8.16-.58-9.67-4.56.54-.06.9.43,1.4.52,2.09.36,3.76-.89,5.68-.86,2.55.03,4.69,1.9,7.23,1.92,2.03.02,4.35-1.24,6.44-.51l-.26.41c-1.91.46-3.74,1.53-5.2,2.81-.16-.07-.31-.05-.44.06-.22.66-.96,1.67-1.63,1.7-2.08,3.01-1.96,8.48,2.45,8.17-.13.91-1.35,1.35-2.07,1.41-2.11.16-3.73-2.17-3.5-4.34l.74-3.1c-3.08,2.65-1.37,6.96-3.54,10.17-1.03,1.53-2.75,2.82-4.55,2.78.12-.77.63-1.18.87-1.99.31-1.09.25-2.25.49-3.37.65-3.04,3.98-5.76,5.83-8.04-.43-.08-1.06.56-1.52.83-2.94,1.71-6.95,3.44-8.91,6.48-1,1.55-1.49,3.47-2.74,4.83-1.48,1.61-3.76,2.17-5.05,4.1-1.08-1.69.23-4.44,1.31-5.86,1.56-2.05,3.56-2.9,5.63-4.18l3.61-2.73c-4.22,1.52-8.72,2.55-12.69,4.76-3.52,1.95-6.42,6.46-10.6,6.6-.76.03-2.95-.31-2.85-1.42,2.68.39,3.85-2.45,5.94-3.76s4.86-1.56,7.17-2.51l1.76-.83c-.89.03-1.8-.05-2.69,0s-2.09.35-2.95.36c-3,.05-6.23-.71-9.19.3-2.63.9-2.6,3.74-6.18,4.11-1.54.16-2.71-.59-3.9-.52-.9.05-1.62.89-2.54.89.12-2.16,2.13-4.32,3.88-5.1,2.72-1.23,4.63-.16,7.32-.21l3.83-.54c-1.19-.23-2.42-.3-3.6-.62-2.69-.74-4.96-2.62-7.92-2.59s-4.47,1.88-6.95,2.59c-1,.29-1.96.3-2.95.53-.69.16-1.27.52-1.95.63.9-5.92,6.96-4.99,11.09-4.51.25.03.54.23.18-.19-3.29-1.57-7.6-4.41-11.32-3.78-1.03.17-2.03,1.07-3.14,1.2-2.2.26-3.59-1.15-6-.66-.53.11-.93.36-1.43.49-.04-1.74,1.92-3.39,3.27-3.99,3.65-1.61,6.15.34,9.43,1.64.38.15.96.47,1.35.31-3.17-2.78-6.34-5.57-9.96-7.64-1.76-1-3.74-1.95-5.77-1.46s-1.64,2.4-2.75,3.05c-2.2,1.28-3.51-2.7-.56-4.16,2.51-1.25,5.19-.46,7.64.59l3.07,1.81c-2.19-2.33-4.47-5.67-7.19-7.28-2.15-1.27-4-.74-6.14-1.5-1.53-.54-2.53-1.93-4.16-2.4-.91-.27-1.34-.2-2.29-.09.27-1.02,1.33-1.9,2.18-2.34,1.91-1,3.9-.77,5.65.49,1.89,1.36,3.48,3.52,5.24,5.13.13.12.33.47.49.18-3.3-3.74-5.35-11.98-9.91-14.09-.73-.34-1.83-.72-2.57-.22-.35.24-.27,1.82-1.54,1.94-1.99.19-2.97-4.15.08-4.72s6.23,2.96,7.97,5.46c.12.03.1-.17.08-.26-.62-2.54-1.37-5.96-2.94-7.99-1.75-2.25-4.59-1.98-6.34-4.29-.87-1.15-1.65-3.35-2.56-4.32-.56-.6-2.75-1.09-1.4-1.68,1.77-.78,4.72.22,6.2,1.44,2.33,1.92,2.95,5.34,4.55,7.84.05.08.27.56.37.31-1.11-3.96-.75-10.38-3.85-13.22-.86-.79-2.17-1.29-2.94-2.13-1.41-1.53-1.64-3.83-3.8-4.93-.46-.23-1.54-.18-1.35-.84.04-.14,1.17-.57,1.41-.61,2.99-.45,5.5,1.26,6.86,4.06l2.03,6.04c-.24-3.57.61-9.38-1.47-12.33-1.01-1.43-2.67-2.09-3.73-3.58-1.22-1.73-1.48-3.95-2.57-5.9-.35-.63-.99-1.03-.88-1.79,3.6.46,6.04,1.85,7.24,5.72l1.42,6.71c.2-4.38,1.9-12.14-.9-15.8-1.08-1.41-2.68-1.54-3.75-3.03-2.1-2.95.36-4.69,2.85-2.56s1.32,5.13,2.76,8.01l.67,4.51c.14-1.38.4-2.74.74-4.08.74-2.94,2.56-6.08,2.19-9.13-.24-1.95-1.72-3.18-2.47-4.78-.62-1.34-.7-3.01-1.47-4.26-.32-.53-1.97-1.79-1.93-1.98.15-.75,2.1-.87,2.68-.79,2.15.3,4.32,3.16,4.5,5.4.15,1.76-.33,3.56-.33,5.33l.33,1.68c.13-1.39.89-2.66,1.31-3.99.91-2.88,1.68-8.02.25-10.75-.45-.84-1.36-1.49-1.69-2.43-.82-2.37.99-5.7,2.42-2.89Z" fill="#fbf6f2"/>
  <path d="M40.27,10.41c-.27-.32-.49-.7-.81-.98.54-.86,1.78-.3,2.44.19,2,1.48,1.79,4.73.67,6.73-.04.12.15.13.24.09.14-.07,1.37-1.45,1.55-1.69,2.66-3.6,1.41-8.66,6.07-11.16.34-.18,3.39-1.32,3.41-.55-1.9,1.96-1.47,4.87-3.03,7-1.24,1.69-3.51,2.67-4.81,4.36.91-.01,1.88-.82,2.78-1.24,3.79-1.78,10.14-3.82,11.47-8.66.35-1.29-.28-2-.13-2.97.24-1.61,2.28-2.1,2.51-.76.35,1.97-2.05,5.45-3.07,7.06l-1.71,1.69c5.82-1.18,7.83-8.46,13.81-9.23-1.01,2.87-3.23,4.74-5.57,6.29-.68.45-1.53.74-2.11,1.34.67-.26,1.34-.11,2-.22,8.14-1.42,14.26-6.78,22.82-1.27,3.45,2.22,5.72,7.48,9.9,7.54,2.77.04.74-1.83,2.05-2.76,1.47-1.04,3.17.52,2.4,2.61s-3.32,2.1-5.03,1.65c-1.05-.28-1.81-.94-2.77-1.34,1.42,2.13,3.85,4.39,6.33,4.74s3.64-1.66,6-1.74c2-.06,5,1.4,5.32,3.74-.65.14-1.08-.37-1.71-.36-1.35.03-2.91.9-4.28,1.05-2.48.27-4.3-.8-6.39-2.07-.14-.09-.41-.39-.54-.13,2.03,1.89,3.79,4.07,5.99,5.74s6.4,3.99,9.09,2.13c.76-.52,1.37-1.89,2.32-1.94,2.18-.1,1.43,3.35-.13,4.31-1.9,1.17-3.8-.14-5.67-.57-.06.05.17.27.24.36.39.44,4.59,3.71,4.98,3.82,1.31.37,3.37-.27,4.95-.05.68.09,1.47.42,2.09.75,1.29.7,2.15,2.21,3.76,1.87.47.5-1.49,1.55-1.8,1.68-3.37,1.41-6.8-.6-9.07-3.28-.12-.03-.11.18-.08.26.22.57,1.23,1.87,1.6,2.52.6,1.06,1.09,2.23,1.76,3.23,1.02,1.53,4.15,4.99,5.99,4.59.35-.07.73-.44,1.11-.58,3.99-1.46,3.27,4.85-.26,2.93-.4-.22-.65-.65-1-.87-1.49-.95-3.19-1.64-4.39-3.05-.27.2.17.51.28.76.94,2.31,2.02,5.81,3.57,7.66,1.44,1.72,3.17,1.24,4.9,2.13,2.39,1.24,2.66,4.42,3.57,6.78.06.15-.14.38-.23.4-.18.05-2.98-1.54-3.39-1.81-2.95-1.91-3.57-3.68-5.31-6.65-.05-.08-.23-.57-.36-.32.71,2.56.65,6.91,2.45,8.88.49.53,2.07,1.21,2.11,1.8.06.82-1.46.23-1.7-.12-.11-.04-.12.16-.08.26.11.29,1.36,2.24,1.57,2.38.54.37,1.71.29,2.4.59,2.32.97,2.81,4.12,4.69,5.56.04.2-.11.36-.27.41-.22.08-2.48-.13-2.87-.2-1.61-.26-3.33-1.83-3.8-3.5-.57-2.01-1.04-3.28-2.24-5.03l-.79-1.72c-.07,1.37.27,2.81.33,4.16.15,3.29-.3,5.69,1.22,8.8s3.72,3.01,4.31,7.03c.25,1.68-.04,3.01.86,4.56.12.21.98,1.01.79,1.18-2.32.08-4.68-1.81-5.75-3.96-1.61-3.25-.76-7.14-1.66-10.63-.05-.18-.04-.54-.27-.5-.15,1.78-.27,3.62-.51,5.39-.63,4.61-2.56,10.86,1.57,14.3,1.77,1.47,2.67-1.22,4,.98,1.08,1.79-1.07,4.06-2.76,2.47-1.6-1.5-3.99-4.58-4.51-6.82l-.41-3.02c-.07.34-.07.79-.18,1.1-.77,2.15-1.56,4.98-1.91,7.37-.19,1.31,0,2.66.71,3.76.43.65,1.1.98,1.54,1.52,1.92,2.35.82,4.62,1.67,7.06.24.69.78,1.17.78,1.9-1.94.12-4.41-1.79-5.21-3.66-1.34-3.15-.14-5.87-.35-9.12l-2.85,6.39c-.68,2.1-2.27,5.4-1.24,7.54.71,1.47,2.38,1.59,3.02,3.46.57,1.67-.27,3.37-.08,5.06.1.86.72,1.21.66,2.04-2.28-.15-4.64-1.97-5.4-4.34-.95-2.96.58-7.17.98-10.21-.68.97-1.21,2.03-1.89,3-.63.9-3.09,4.2-4.07,4.11-1.21-.11.33-1.82.65-2.14,1.57-1.56,2.81-2.83,4.07-4.81.11-.17.56-.71.43-.87-1.44,1.26-2.64,2.76-4.53,3.15-2.19.45-4.54-.21-5.73-2.39-.09-.16-.76-1.48-.28-1.47.08,0,.91.65,1.47.71.97.1,2.11-.39,3.11-.38,2.33.03,2.97,1.3,5.29-.45,2.44-1.83,5.2-8.02,6.3-11.08.14-.4.49-.99.33-1.41-2.75,3.59-6.49,9.49-11.43,8.68-2.14-.35-3.72-3.28-2.52-5.37s4.25-1.35,3.87.29c-.22.96-3.07.71-1.85,2.78,1.29,2.19,5.19-.48,6.53-1.59,3.92-3.27,6.42-8.26,7.95-13.2.49-1.58.91-3.43,1.12-5.08l-1.01,1.66c-2.65,3.11-6.01,9.59-10.75,7.65-.9-.37-2.47-1.59-2.45-2.75,2.21.56,3.83-1.19,5.82-1.4,2.36-.25,2.9.77,4.8-1.54,1.52-1.85,3.17-4.68,3.81-7.05.93-3.44.95-7.21.94-10.78-.48-.09-.27.12-.35.41-.58,2.07-1.56,3.41-2.25,5.23-1.23,3.21-1.25,5.64-4.81,7.17-1.39.6-3.68,1-4.69-.47.62-.35,1.29-.34,1.88-.8,1.07-.83,1.83-3.22,2.85-4.36s2.79-1.76,3.93-2.83c5.09-4.78,2.04-16.05-.21-21.79l-.61-1.37c.45,2.41.24,4.56-.24,6.93-.3,1.47-.88,2.03-.75,3.82.11,1.41.7,1.65,1.12,2.69,1.04,2.61-.76,4.15-2.01,1.3-1.25,1.38-.69,2.33-.72,3.81-.03,1.71-1.32,2.6-2.79,2.4.03-.55-.06-1.13.02-1.67.25-1.91,2.55-3.59,3.1-5.51.29-1.03.14-2.38.32-3.47-1.3,1.9-3.77,3.44-5.94,2.29-2.79-1.48-.42-5.15.79-3.16.53.88.04,1.88,1.73,1.69,3.72-.4,4.79-6.33,4.57-9.6-.32-4.9-3.24-11.34-6.86-14.29.37,1.19,1.05,2.27,1.23,3.54.14.97-.03,1.88.19,2.82.39,1.72,1.8,2.18,1.51,4.54s-3.22,5.31-5.38,5.25c0-.62.39-1.08.48-1.7.23-1.74-.38-3.15.26-5.04.45-1.32,2.27-2.56,2.36-3.11.27-1.58-.27-3.47-.89-4.88-1.38-3.16-4.07-5.31-6.95-6.74.66,1.8,2.14,2.62,2.73,4.57.64,2.12.41,5.69-1.75,6.61.28-2.49-2.14-3.81-2.25-6.35-.05-1.06.84-2.75.66-3.53-.28-1.21-1.92-2.44-2.33-3.69l-4.33-4.53c0,1.03.14,2.07.09,3.11-.06,1.24-.36,2.67-.44,3.94-.35.24-.6.8-.87,1.02-1.33,1.07-3.01-.28-2.44-1.94s2.29-.7,2.59-3.4c.5-4.41-2.98-6.74-4.97-10.01-.08.58.26,1.09.26,1.69,0,3.66-2.76,6.72-6.19,5.64-2.47-.78-3.47-3.6-1.9-5.9.52-.76,2.14-1.47,2.5-.43.22.63-.45.34-.86.62-.49.33-1.05,1.58-1.04,2.21.01.82,1.17,1.96,1.92,2.13,1.7.39,3.02-.33,3.69-2.04,1.54-3.94-2.11-7.88-5.28-9.19-3.99-1.64-8.02-1.17-12.13-.4-.04.25.27.24.44.28.47.1,1.1,0,1.59.1,4.02.73,9.32,3.2,7.53,8.67-1.6,4.9-8.16,4.21-8.1-.27.05-3.15,3.32-3.19,3.12-1.08-.13,1.3-2.22,1.86-.6,2.8s3.44.12,3.8-1.8c.87-4.63-4.62-7.27-8.04-7.62-2.81-.29-7.67.55-10.56,1.09s-5.75,1.61-8.62,2.44c-.15.13-.1.35.23.33.9-.05,1.78.1,2.65.36s1.93.97,2.64,1.05c.66.08,1.51-.4,2.41-.33,2.04.15,3.3,2.28,4.06,4.11.24.57.71,1.62.18,2.11-1.55-1.48-3.69-.47-5.46-1.7-1.42-.99-.63-2.91-3.17-4.01-2.27-.98-4.7-.58-6.97.12-3.71,1.13-7.32,3.26-10.13,6.12,3.35-1.53,6.58-3.85,10.38-2.67,1.63.51,3.48,2,3.67,3.91-1.5-1.03-3.15-.23-4.82-.36-1.92-.15-3.56-1.19-5.56-1.06-2.61.18-4.93,2.16-7.27,2.84-.33.6-3.9,1.07-3.31-.22,3.92-1.64,9.35-5.61,6.69-10.76-.4-.28-.54-.58-.44-.91Z" fill="#fbf7f2"/>
  <path d="M74.87,66.43c.67,1.36.91,2.16.74,3.86-.18,1.86-1.85,4.39-3.17,5.6-1.4,1.28-3.49,2.44-5.31,2.67,1.21,1.31,2.86,2.08,3.27,4.08l.51-1.66c3.82-7.84,13.51-10.55,21.1-8.94.69.15,3.41,1.2,3.64,1.19.28,0,2.8-1.65,3.47-1.91.47-.18,2.79-.88,1.84.22-.5.58-3.57,1.45-3.92,2.31,4.52,1.93,6.08,7.98,2.27,11.69-1.47,1.43-3.05,2.16-4.88,2.87,6.88,2.21,5.57,10.88.98,15.09-2.7,2.48-8.02,4.4-11.34,2.55-3.92-2.18-.67-7.84,2.68-8.14.07.34-.16.42-.34.6-1.41,1.39-3.36,2.94-2.59,5.33.55,1.71,2.9,1.83,4.27,1.65,4.72-.62,8.68-6.93,8.12-11.91-.25-2.22-2.09-4.25-4.17-4.36-.78-.04-3.02.79-3-.79s3.15-.42,3.96-.5c3.8-.37,6.39-5.44,5.37-9.3-.24-.9-1.64-3.61-2.56-3.62-.68,0-3.28,4.03-3.74,4.81-5.16,8.67-11.5,27.33-22.73,27.34-2.4,0-5.61-1.37-5.14-4.53.22-1.49,2.16-1.46,2.64-.23.6,1.52-.82,2.83,1.88,3.28,4.7.8,8.48-4.81,10.73-8.49,4.67-7.64,7.67-16.82,14.42-22.68.14-.12.37-.17.55-.2.07-.45-.04-.28-.23-.37-7.95-3.91-24.56,2.33-22.61,13.73.34,2.01,1.13,4.04,3.06,4.66,1.77.57,2.61-.23,4.25-.62.34.35-.95,1.2-1.16,1.31-2.65,1.44-5.76.61-6.76-2.55-2.08,4.87-6.46,8.2-11.44,8.52-3.46.22-7.99-1.73-6.48-6.33.39-1.2,1.88-3.25,3.13-3.25.01.68-.63,1.06-.98,1.68-2.68,4.63.71,7.25,4.94,6.25,4.98-1.18,9.23-7.65,8.1-13.13-.4-1.95-2.31-4.54-4.29-4.58-.95-.02-3.61.92-3.6-.78,0-1.52,2.15-1.42,3.09-1.31,1.72.19,1.75.88,3.69.06,5.32-2.24,7.78-11.1,2.02-14.44-1.94,1.66-3.61,3.77-5.09,5.95-4,5.89-6.78,13.01-10.42,19.21-2.89,4.92-6.79,8.67-12.16,10.04-2.86.73-7.87,1.02-9.07-2.75-1.07-3.36,2.36-5.61,3.65-2.91.76,1.6-1.39,2.86.19,4.05,1.81,1.37,5.75-.07,7.5-1.25,5.96-4.02,8.46-11.26,11.81-17.52,3.17-5.91,6.73-11.99,12.39-15.39.05-.47,0-.28-.24-.36-6.05-1.97-12.35-1.51-18.12,1.27-5,2.41-9.93,7.89-10.23,14.09-.22,4.56,3.05,7.95,7.14,5.62,1.64-.94,4.25-4.09,5.03-5.89.34-.79.65-2.49.98-3.02s.43.5.42.8c-.13,5.82-7.77,13.31-12.97,9.46-3.28-2.43-3.86-7.99-2.12-11.64,5.38-11.24,17.56-14.98,28.48-12.38.69.16,2.61.97,3.02.96.34,0,2.17-1.2,2.74-1.44.42-.17,2.43-1.03,2.56-.41.1.49-2.41,1.44-2.94,1.77-.17.11-.97.61-.97.71,1.95,1.13,3.1,2.17,4.14,4.28Z" fill="#faf6f1"/>
  <path d="M104.46,113.91c2.32,1.39,2.54,4.59,2.11,7.16-.76,4.45-1.27,1.21-2.59-.41-.15,1.2.65,2.19.65,3.37-3.01-.87-6.93-5.82-4.41-9.05.73-.15,1.7.19,1.86.15.38-.1.26-1.34,1.65-1.41.33-.02.53.17.73.19Z" fill="#acdcee"/>
  <path d="M94.82,129.35c-.64-.67-.63-1.61-.14-2.38.13-.21.5-.3.47-.37-.07-.18-.47-.41-.58-.79-.35-1.19.26-1.96,1.2-2.45,2.36-1.22,5.03-.38,7.11,1.05.26.18,1.17.78.77,1.21-.07.08-1.63.16-1.97.25-.25.07-.87.34-.97.63h2.7c.25,0,.36.65.08.98-.08.1-1.87,1.29-2.12,1.43-1.65.91-4.31,1.71-6.05.79-.03-.01-.47-.33-.49-.35Z" fill="#acdcee"/>
  <path d="M100.22,136.27c-.64-2.51,1-5.62,2.78-7.19.26-.23,1.82-1.56,1.94-.71.06.42-.74,2.24-.46,2.93.81-.2.95-3.56,1.94-2.82.06.04.38,1.19.43,1.4.46,2.11.3,4.34-.25,6.4-.75,1.3-2.09,3.15-3.52,1.43-.25-.3-.22-.69-.24-.72-.06-.06-1.08.36-1.47.27-.57-.13-1.07-.97-1.14-.98Z" fill="#acdcee"/>
  <path d="M113.12,126.69c.51.18,2.17,1.25,2.56,1.66,1.33,1.44,1.36,3.52-.92,3.49.66,3.16-2.25,2.86-4.08,1.6-1.67-1.15-3.28-3.49-3.43-5.68.36-.39,2.14,1.46,2.78,1.24.34-.34-1.56-1.56-1.71-1.78-.52-.77-.28-.98.48-1.06,1.12-.11,3.26.15,4.33.53Z" fill="#acdcee"/>
  <path d="M111.82,116.39c.43-.1,1.61-.05,1.96.27.61.58.43,2.13.5,2.21.15.17,1.78.09,1.77,1.52,0,.71-1.11,2.08-1.61,2.57-1.24,1.22-4,2.27-5.66,2.29-2.26.03,1.43-2.49,1.08-2.82-1.2-.23-1.79,1.79-2.93,1.23.22-2.08,1.41-4.44,2.85-5.84.33-.31,1.7-1.35,2.04-1.43Z" fill="#acdcee"/>
  <path d="M26.16,5.87c.22-.86,1.18-2.52,2.05-2.66,1.67-.27,1.39,1.16,1.71,1.41.14.11,1.24-.92,2.12.09.77.88.45,2.23.49,3.29-.11.85-3,6.12-3.92,5.15-.18-.89.26-1.94.17-2.75-.03-.25-.1-.52-.33-.27-.09.1-.41,1.65-.53,2-.42,1.25-.65,1.02-1.14-.1-.68-1.55-1.05-4.51-.62-6.16Z" fill="#f1becd"/>
  <path d="M19.46,7.64c1.09-.5,2.93.32,3.84,1.07.74.61,3.27,3.7,3.01,4.68-.04.16-.19.29-.37.26-.36-.06-1.37-.74-1.79-.9-.72-.27-1.14-.2-.4.43s3.44,1.73.86,1.92-5.09-.07-6.95-2.32c-.15-.78-.5-1.7.26-2.29.23-.18,1.01-.33,1.04-.38.08-.11-1.04-1.77.49-2.48Z" fill="#f1becd"/>
  <path d="M33.84,24.5c-.54,1.7-2.01.8-2.12.89-.03.02-.11.48-.26.7-1,1.43-2.24.43-3.02-.7-1.34-1.97-1.71-5.79-.41-7.81.45,0,1.35,2.95,1.71,2.48.1-1.01-.63-1.83-.65-2.84.27-.28,1.81.91,2.11,1.17,1.45,1.26,3.3,4.01,2.63,6.11Z" fill="#f1becd"/>
  <path d="M20.44,23.97c-.25-.24-.11-1.18-.16-1.24-.07-.08-1.42.1-1.72-.88-.58-1.9,1.54-4.04,2.92-4.83.66-.38,3.87-1.53,4.29-.87.46.72-.58.88-1.05,1.36-.16.17-1.14,1.61-.43,1.31s1.47-1.73,2.54-1.42c-.2,3.05-2.5,7.52-5.72,7.28-.39.27-.88-.28-.65-.71Z" fill="#f1becd"/>
  <path d="M37.6,14.39c-.12.13.48.35.66.61,1.09,1.6-.77,2.84-2.09,3.07-2.23.39-4.45-.43-6.24-1.84-.32-1.19,2.52-.48,2.6-1.66-.18-.16-3.92.7-2.46-.98,1.57-1.8,4.75-2.86,6.92-2,1.16.46,1.88,1.38,1,2.62-.12.16-.37.16-.4.19Z" fill="#f1becd"/>
  <path d="M27.26,13.71c1.14-.37,2.56.94,2.05,2.23-.69,1.74-3.59,1.1-2.91-1.21.08-.28.61-.94.86-1.02Z" fill="#f1becd"/>
  <path d="M105.9,124.07c1.76-.11,2.35,2.91.53,3.42-2.61.73-2.8-3.28-.53-3.42Z" fill="#acdcee"/>
  <g>
    <path d="M50.13,44.25l-5.81-10.79v7.99c0,.66.02,1.1.07,1.31.05.21.18.4.4.58.22.18.55.26.98.26v.39h-3.07v-.39c.39-.04.69-.14.9-.3s.33-.33.37-.52c.04-.19.06-.63.06-1.32v-6.11c0-.88-.03-1.47-.09-1.78-.06-.3-.15-.49-.28-.58-.13-.08-.41-.13-.85-.13v-.39h2.42l4.87,9.01v-6.89c0-.51-.04-.87-.11-1.07s-.23-.37-.46-.48c-.23-.12-.51-.18-.83-.18v-.39h2.98v.39c-.35.04-.62.13-.82.28-.2.15-.33.32-.38.53-.05.21-.08.56-.08,1.05v9.53h-.26Z" fill="#faf6f1"/>
    <path d="M57.27,42.72h.22c-.04.97-.38,1.45-1.02,1.45-.27,0-.49-.1-.65-.31-.16-.2-.26-.51-.31-.91-.4.4-.77.71-1.11.91-.33.2-.63.31-.89.31-.34,0-.62-.14-.87-.41-.24-.27-.36-.63-.36-1.08,0-.58.2-1.09.61-1.53.41-.44.97-.86,1.68-1.27l.94-.54v-.34c0-.48-.02-.83-.07-1.04s-.16-.41-.35-.58c-.19-.17-.43-.25-.73-.25-.61,0-.94.28-1.01.85-.06.58-.23.87-.51.87-.25,0-.37-.16-.37-.49s.16-.67.49-1.04c.33-.37.84-.56,1.53-.56.51,0,.91.11,1.19.34s.47.48.56.77c.09.29.14.73.14,1.33v2.81c0,.66.02,1.08.07,1.27.05.19.15.28.31.28.27,0,.43-.28.5-.83ZM55.51,39.74l-.66.37c-1.04.59-1.56,1.34-1.56,2.24,0,.36.07.64.2.86s.31.33.52.33c.19,0,.41-.09.66-.26.25-.18.53-.44.84-.79v-2.75Z" fill="#faf6f1"/>
    <path d="M59.62,36.76v4.85c0,.74,0,1.21.02,1.4s.07.34.18.44c.1.1.28.15.54.15h.13v.39h-2.67v-.39h.21c.29,0,.47-.06.56-.17.09-.12.14-.25.15-.42.01-.16.02-.63.02-1.41v-2.11c0-.82-.03-1.31-.08-1.5-.05-.18-.13-.29-.22-.34-.09-.05-.25-.07-.48-.07h-.16v-.39c.72-.1,1.28-.25,1.67-.45h.13ZM58.45,33.21c0-.24.06-.45.18-.63.12-.18.27-.26.45-.26s.32.09.44.26.18.38.18.63-.06.46-.18.64c-.12.17-.27.26-.44.26s-.32-.09-.45-.26c-.12-.18-.18-.39-.18-.64Z" fill="#faf6f1"/>
    <path d="M62.62,32.31v9.29c0,.74,0,1.21.02,1.4s.07.34.17.44c.1.1.28.15.54.15h.15v.39h-2.65v-.39h.17c.24,0,.42-.05.52-.14.1-.09.16-.22.18-.39.02-.17.03-.66.03-1.46v-6.88c0-.73-.05-1.19-.14-1.38-.09-.19-.32-.28-.68-.28v-.39c.25,0,.54-.04.87-.12s.56-.16.69-.24h.13Z" fill="#faf6f1"/>
    <path d="M67.52,43.87v-3.7h.3c.34,2.41,1.16,3.62,2.44,3.62.58,0,1.03-.23,1.34-.69.32-.46.48-.98.48-1.55s-.14-1.06-.42-1.45c-.28-.39-.79-.8-1.53-1.24-.66-.4-1.16-.74-1.49-1.04-.34-.3-.6-.68-.79-1.16s-.28-.98-.28-1.52c0-.82.2-1.5.61-2.05.41-.55.92-.82,1.54-.82.35,0,.67.08.98.24.31.16.62.49.95.98.19-.31.29-.65.32-1.01h.27v3.01h-.27c-.15-.88-.43-1.57-.82-2.07-.39-.5-.84-.76-1.35-.76s-.85.19-1.08.56c-.23.37-.34.78-.34,1.22,0,.53.14.98.43,1.35.28.37.79.79,1.53,1.26.71.44,1.22.8,1.54,1.07.32.27.58.64.77,1.12.19.48.29,1.02.29,1.65,0,.98-.23,1.79-.7,2.4-.47.62-1.09.93-1.88.93-.9,0-1.65-.48-2.25-1.45-.13.27-.23.64-.3,1.12h-.3Z" fill="#faf6f1"/>
    <path d="M78.99,42.72h.22c-.04.97-.38,1.45-1.02,1.45-.27,0-.49-.1-.65-.31-.16-.2-.26-.51-.31-.91-.4.4-.77.71-1.11.91-.33.2-.63.31-.89.31-.33,0-.62-.14-.87-.41-.24-.27-.36-.63-.36-1.08,0-.58.2-1.09.61-1.53.41-.44.97-.86,1.68-1.27l.94-.54v-.34c0-.48-.02-.83-.07-1.04-.04-.21-.16-.41-.35-.58s-.43-.25-.73-.25c-.61,0-.94.28-1.01.85-.07.58-.23.87-.51.87-.25,0-.37-.16-.37-.49s.16-.67.49-1.04c.33-.37.84-.56,1.53-.56.51,0,.91.11,1.19.34.28.23.47.48.56.77.09.29.14.73.14,1.33v2.81c0,.66.02,1.08.07,1.27.05.19.15.28.31.28.27,0,.43-.28.5-.83ZM77.23,39.74l-.66.37c-1.04.59-1.56,1.34-1.56,2.24,0,.36.07.64.2.86.13.22.31.33.52.33.19,0,.41-.09.66-.26.25-.18.53-.44.84-.79v-2.75Z" fill="#faf6f1"/>
    <path d="M81.24,32.31v9.29c0,.74,0,1.21.02,1.4.01.19.07.34.17.44.1.1.28.15.54.15h.15v.39h-2.65v-.39h.17c.24,0,.42-.05.52-.14.1-.09.17-.22.18-.39.02-.17.03-.66.03-1.46v-6.88c0-.73-.05-1.19-.14-1.38-.09-.19-.32-.28-.68-.28v-.39c.25,0,.54-.04.87-.12.33-.08.56-.16.69-.24h.13Z" fill="#faf6f1"/>
    <path d="M82.78,40.5c0-1.06.25-1.95.76-2.67.51-.72,1.13-1.07,1.88-1.07s1.38.36,1.88,1.08c.51.72.76,1.61.76,2.67,0,1.17-.26,2.09-.78,2.76-.52.67-1.14,1.01-1.87,1.01s-1.36-.34-1.87-1.02c-.52-.68-.77-1.6-.77-2.75ZM83.78,40.54c0,1.23.14,2.1.43,2.59.29.5.69.74,1.21.74s.93-.25,1.21-.74.42-1.36.42-2.59-.14-2.09-.42-2.62c-.28-.52-.68-.78-1.22-.78s-.93.26-1.22.78c-.28.52-.42,1.39-.42,2.62Z" fill="#faf6f1"/>
    <path d="M90.23,36.76h.16c.09.35.15.83.16,1.44.29-.48.6-.84.92-1.08.32-.24.65-.36,1-.36.4,0,.72.12.97.35.25.23.42.52.49.85.07.34.11.83.11,1.47v2.17c0,.8.01,1.29.03,1.47.02.17.08.31.19.39.11.09.3.13.59.13v.39h-2.54v-.39h.12c.29,0,.48-.06.57-.18s.14-.26.15-.42.02-.62.02-1.4v-2.24c0-.55-.02-.94-.06-1.18-.04-.23-.14-.44-.31-.62-.17-.18-.38-.27-.64-.27-.29,0-.58.12-.85.37-.27.25-.52.62-.76,1.11v2.84c0,.8.01,1.29.03,1.47.02.17.09.31.19.39.11.09.31.13.6.13v.39h-2.51v-.39c.28,0,.47-.04.58-.12s.18-.2.2-.36c.03-.16.04-.67.04-1.52v-2.07c0-.81-.01-1.3-.03-1.47s-.09-.3-.19-.39c-.11-.09-.31-.13-.6-.13v-.39c.44-.07.9-.2,1.36-.39Z" fill="#faf6f1"/>
  </g>
</svg>